#!OML:ASF E:\emotionWalksFemale\Project 1\Capture day 1\Session 1\Female1.ASF
:FULLY-SPECIFIED
:DEGREES
565
root 23.305 15.5603 3.63852 174.112 -50.2919 -177.21
lowerback 1.6325 1.04028 -5.93608
upperback -6.9423 0.547284 -2.41415
thorax -8.28331 0.431071 0.741508
lowerneck -15.6626 0.296733 -1.42789
upperneck 21.7616 0.379531 0.367456
head 9.44943 -0.0399441 0.390695
rclavicle 7.95139e-016 3.02153e-014
rhumerus 29.2875 8.86791 -52.613
rradius 23.8293
rwrist 28.9518
rhand -8.99762 -46.3115
rfingers 7.12502
rthumb -163.051 104.408
lclavicle 7.95139e-016 3.02153e-014
lhumerus 25.7534 -6.33647 57.8594
lradius 25.3586
lwrist -37.1824
lhand -7.36094 -37.4041
lfingers 7.12502
lthumb 18.5237 -8.26608
rfemur -17.3061 25.9126 13.9218
rtibia 13.8445
rfoot -24.9887 -35.7034
rtoes -4.99079
lfemur 19.523 -16.9587 -29.0669
ltibia 22.5189
lfoot -6.94205 2.48741
ltoes 2.73703
566
root 23.2401 15.5458 3.50758 174.199 -50.7478 -177.426
lowerback 1.55962 1.05726 -5.9706
upperback -6.92353 0.578957 -2.39463
thorax -8.22279 0.449163 0.779811
lowerneck -15.7694 0.285457 -1.4188
upperneck 21.725 0.405863 0.220061
head 9.45694 -0.04051 0.342158
rclavicle -1.11319e-014 6.36111e-014
rhumerus 29.5273 8.17805 -53.0917
rradius 23.426
rwrist 29.6337
rhand -8.9764 -45.9834
rfingers 7.12502
rthumb -163.031 104.738
lclavicle -1.11319e-014 6.36111e-014
lhumerus 25.8791 -5.85476 58.3759
lradius 25.2191
lwrist -37.9383
lhand -7.50028 -37.2547
lfingers 7.12502
lthumb 18.3896 -8.104
rfemur -16.5751 27.0079 14.0215
rtibia 13.7227
rfoot -25.458 -36.6202
rtoes -4.85294
lfemur 19.6616 -16.5967 -28.7878
ltibia 23.1269
lfoot -6.22932 1.91731
ltoes 2.6374
567
root 23.1687 15.5366 3.38315 174.372 -51.2594 -177.645
lowerback 1.42309 1.05387 -5.96278
upperback -6.94441 0.587758 -2.3538
thorax -8.166 0.453696 0.819506
lowerneck -15.8221 0.245885 -1.41393
upperneck 21.741 0.378685 0.112116
head 9.4731 -0.0641899 0.300846
rclavicle 2.78299e-015 3.02153e-014
rhumerus 29.7862 7.76714 -53.2432
rradius 23.0602
rwrist 30.1106
rhand -8.93547 -45.6943
rfingers 7.12502
rthumb -162.991 105.03
lclavicle 2.78299e-015 3.02153e-014
lhumerus 25.9884 -5.62307 58.7163
lradius 25.0847
lwrist -38.35
lhand -7.49668 -37.2053
lfingers 7.12502
lthumb 18.3931 -8.05492
rfemur -15.7348 23.9059 14.7982
rtibia 13.5095
rfoot -23.7251 -34.3204
rtoes -7.64721
lfemur 19.5412 -16.2 -28.4408
ltibia 23.8763
lfoot -5.39319 1.24928
ltoes 3.10639
568
root 23.0983 15.5144 3.25785 174.406 -51.722 -177.711
lowerback 1.41009 1.1018 -5.74486
upperback -7.00878 0.661267 -2.35257
thorax -8.22668 0.477306 0.69237
lowerneck -15.7719 0.182035 -1.38106
upperneck 21.7171 0.268683 0.165077
head 9.45615 -0.105627 0.29976
rclavicle -1.39149e-014 -2.8625e-014
rhumerus 29.7085 8.26518 -52.5139
rradius 23.3497
rwrist 29.3761
rhand -8.62198 -46.0508
rfingers 7.12502
rthumb -162.69 104.7
lclavicle -1.39149e-014 -2.8625e-014
lhumerus 26.0617 -6.15927 58.2995
lradius 25.1671
lwrist -37.8996
lhand -7.34913 -37.0955
lfingers 7.12502
lthumb 18.535 -7.95854
rfemur -14.9386 25.501 14.912
rtibia 13.2834
rfoot -24.8679 -35.427
rtoes -4.8803
lfemur 19.3321 -15.7066 -27.9467
ltibia 24.7065
lfoot -4.43996 0.547936
ltoes 3.66575
569
root 23.0268 15.4928 3.12603 174.453 -52.178 -177.868
lowerback 1.40175 1.15661 -5.57493
upperback -7.01816 0.744419 -2.38052
thorax -8.23099 0.506681 0.561166
lowerneck -15.9157 0.138897 -1.44349
upperneck 21.7871 0.188223 0.340597
head 9.50774 -0.127214 0.361143
rclavicle -1.31198e-014 -1.11319e-014
rhumerus 29.5788 9.06718 -51.5333
rradius 23.9426
rwrist 28.2441
rhand -8.09929 -46.8411
rfingers 7.12502
rthumb -162.187 103.955
lclavicle -1.31198e-014 -1.11319e-014
lhumerus 26.1467 -6.83057 57.5813
lradius 25.357
lwrist -37.1279
lhand -7.11642 -36.9279
lfingers 7.12502
lthumb 18.7588 -7.81245
rfemur -14.0438 26.245 15.1848
rtibia 13.0676
rfoot -27.6219 -34.915
rtoes 2.49143
lfemur 19.205 -15.2201 -27.4931
ltibia 25.562
lfoot -3.71444 -0.471615
ltoes 4.34852
570
root 22.9545 15.4736 2.99282 174.684 -52.7215 -178.21
lowerback 1.30131 1.10305 -5.62737
upperback -7.04553 0.673602 -2.37699
thorax -8.19979 0.474238 0.601495
lowerneck -16.1029 0.169611 -1.51577
upperneck 22.0089 0.203229 0.532432
head 9.61999 -0.107184 0.442045
rclavicle -4.17448e-014 -3.18055e-015
rhumerus 29.709 10.1539 -50.5341
rradius 24.4408
rwrist 26.9184
rhand -8.03717 -47.3448
rfingers 7.12502
rthumb -162.127 103.456
lclavicle -4.17448e-014 -3.18055e-015
lhumerus 26.185 -6.62536 57.5194
lradius 25.2608
lwrist -37.2743
lhand -7.03957 -37.0918
lfingers 7.12502
lthumb 18.8328 -7.98344
rfemur -13.2376 26.5264 15.376
rtibia 12.9932
rfoot -29.8326 -34.1192
rtoes 9.00417
lfemur 19.0354 -14.7445 -27.0801
ltibia 26.4092
lfoot -3.01661 -1.55781
ltoes 3.19304
571
root 22.8807 15.4513 2.85826 175.074 -53.2598 -178.718
lowerback 1.18851 1.02488 -5.76974
upperback -7.12893 0.557492 -2.37112
thorax -8.223 0.425151 0.697142
lowerneck -15.9611 0.231839 -1.38914
upperneck 22.078 0.249036 0.524381
head 9.61734 -0.0796942 0.423398
rclavicle 6.24184e-014 2.54444e-014
rhumerus 29.6715 10.2019 -50.7272
rradius 24.5227
rwrist 27.2794
rhand -8.19784 -47.0773
rfingers 7.12502
rthumb -162.282 103.71
lclavicle 6.24184e-014 2.54444e-014
lhumerus 26.118 -6.2158 57.745
lradius 25.098
lwrist -37.7477
lhand -7.25758 -37.4071
lfingers 7.12502
lthumb 18.6231 -8.27853
rfemur -12.5558 26.6864 15.4996
rtibia 13.2033
rfoot -26.5694 -36.0751
rtoes -0.729801
lfemur 18.8838 -14.2581 -26.7459
ltibia 27.1068
lfoot -1.87037 -1.98531
ltoes 0.578819
572
root 22.8035 15.4322 2.72354 175.356 -53.6662 -179.108
lowerback 1.08985 1.01609 -5.77159
upperback -7.17887 0.552397 -2.31905
thorax -8.22002 0.424688 0.754114
lowerneck -15.9077 0.194719 -1.60529
upperneck 21.9646 0.278605 0.444742
head 9.56715 -0.0905286 0.435764
rclavicle 2.78299e-015 -4.77083e-015
rhumerus 29.9134 8.82339 -52.1284
rradius 23.7679
rwrist 29.4126
rhand -8.42088 -46.4441
rfingers 7.12502
rthumb -162.496 104.324
lclavicle 2.78299e-015 -4.77083e-015
lhumerus 26.0335 -5.93811 57.8585
lradius 25.056
lwrist -37.9413
lhand -7.4914 -37.64
lfingers 7.12502
lthumb 18.3982 -8.49001
rfemur -12.0333 26.7905 15.7065
rtibia 13.6086
rfoot -22.1384 -37.7461
rtoes -11.606
lfemur 18.8461 -13.7379 -26.3553
ltibia 27.7276
lfoot -0.141392 -2.81621
ltoes 4.46955
573
root 22.7241 15.4245 2.59048 175.474 -54.0441 -179.286
lowerback 1.02845 1.07144 -5.60029
upperback -7.22724 0.638916 -2.30115
thorax -8.23699 0.457241 0.67065
lowerneck -15.9475 0.152401 -1.70512
upperneck 21.9847 0.236991 0.492973
head 9.58197 -0.111988 0.464122
rclavicle -9.10434e-014 -5.08889e-014
rhumerus 30.0846 8.24489 -52.4917
rradius 23.4169
rwrist 30.0077
rhand -8.65096 -46.3573
rfingers 7.12502
rthumb -162.718 104.391
lclavicle -9.10434e-014 -5.08889e-014
lhumerus 26.0348 -5.8457 57.9141
lradius 25.1302
lwrist -37.9732
lhand -7.61104 -37.4147
lfingers 7.12502
lthumb 18.2831 -8.25395
rfemur -11.6888 26.2316 16.0195
rtibia 14.1017
rfoot -19.5261 -37.6747
rtoes -16.956
lfemur 18.8806 -13.235 -25.8089
ltibia 28.2603
lfoot 1.46274 -3.40364
ltoes 5.44655
